<svg xmlns="http://www.w3.org/2000/svg" width="64" height="64" viewBox="0 0 48 48">
  <path fill="#007AC9" d="M25.518 25.96c.791-.54 1.21-1.458 1.253-2.756l.066-.692c.088-1.76.572-3.426 1.452-4.999.88-1.572 2.09-2.92 3.63-4.041l1.946 4.982c.352.945.802 1.88 1.352 2.804.55.924 1.089 1.682 1.617 2.276.264.308.56.462.89.462.265 0 .485-.088.66-.264.176-.176.264-.374.264-.594 0-.264-.088-.516-.263-.758-1.166-1.386-2.068-2.98-2.706-4.784L32.182 8.39h2.771l1.551 3.86c.245.51.575.775.991.792h3.793c.594 0 .957-.242 1.089-.726l1.88-5.543c.044-.088.066-.22.066-.396 0-.263-.077-.478-.23-.643-.155-.165-.342-.247-.562-.247-.352 0-.649.176-.89.528-.352.901-.83 1.556-1.436 1.963-.605.406-1.248.61-1.93.61-.99 0-1.76-.33-2.31-.99-.263-.308-.483-.522-.659-.643-.176-.121-.407-.182-.693-.182h-3.992l-.132-.264c.308-.351.6-.78.874-1.286.275-.506.435-.913.479-1.221.044-.176.066-.429.066-.759 0-.726-.198-1.308-.594-1.748C31.632.682 30.796.275 29.807.275c-.99 0-1.958.473-2.904 1.419-.132.176-.198.406-.198.692 0 .264.088.484.264.66.176.176.407.275.693.297.308 0 .55-.099.726-.297.132-.176.335-.352.61-.528.275-.176.523-.264.743-.264.396 0 .709.11.94.33.23.22.346.473.346.76 0 .725-.319 1.396-.956 2.012-.352.506-.528 1-.528 1.484 0 .308.044.54.132.693l1.484 3.893c-3.343 2.288-5.388 5.268-6.136 8.941-.638-.352-1.342-.473-2.112-.363h-.528L17.105 6.18c.638-.175 1.22-.274 1.748-.296l.627-.066c.264-.044.5-.143.71-.297.208-.154.313-.363.313-.627s-.105-.5-.314-.71c-.209-.208-.489-.313-.84-.313h-6.566c-.814 0-1.221.264-1.221.792 0 .55.302 1.05.907 1.501.605.45 1.27.676 1.996.676l.693-.066 1.88 4.85-1.88 2.772c-2.023-1.452-4.19-2.167-6.5-2.145-1.253 0-2.49.225-3.71.676-1.222.451-2.305 1.062-3.25 1.831l-.462.462c-.22.242-.33.495-.33.76 0 .22.066.395.198.527s.285.22.461.264l.528.132c2.794.682 5.301 2.232 7.522 4.652-.637.44-.956.99-.956 1.65 0 .593.192 1.077.577 1.451.385.374.896.605 1.534.693l11.811 1.287c1.166.088 2.145-.138 2.937-.677zm-12.405-5l4.816-7.092 2.409 6.367-7.225.726zm24.612 10.69c2.397 0 4.415-.835 6.054-2.507 1.638-1.672 2.458-3.673 2.458-6.005 0-2.397-.825-4.415-2.475-6.054-1.65-1.638-3.662-2.458-6.037-2.458-.352 0-.847.044-1.485.132l.726 1.881h.759c1.803 0 3.343.632 4.619 1.897 1.275 1.265 1.913 2.799 1.913 4.602 0 1.804-.638 3.333-1.913 4.586-1.276 1.254-2.816 1.88-4.62 1.88-1.803 0-3.337-.626-4.602-1.88-1.264-1.253-1.897-2.782-1.897-4.586 0-1.495.43-2.804 1.287-3.926l-.825-2.177c-.77.814-1.375 1.748-1.814 2.804-.44 1.056-.66 2.156-.66 3.3 0 1.539.38 2.958 1.138 4.255.759 1.298 1.793 2.332 3.101 3.102 1.309.77 2.733 1.154 4.273 1.154zm-27.252 0c1.496 0 2.887-.374 4.174-1.121 1.286-.748 2.315-1.727 3.085-2.937l-2.376-.264c-.55.726-1.237 1.287-2.062 1.683-.825.396-1.765.594-2.82.594-1.804 0-3.344-.627-4.62-1.88-1.275-1.254-1.913-2.783-1.913-4.587 0-1.165.33-2.298.99-3.398-.616-.396-1.221-.682-1.815-.858-.77 1.298-1.155 2.717-1.155 4.256 0 1.54.385 2.959 1.155 4.256.77 1.298 1.81 2.332 3.118 3.102 1.309.77 2.722 1.154 4.24 1.154zm12.933-6.631c-.462 0-.863-.17-1.204-.511-.341-.341-.511-.732-.511-1.172 0-.44.17-.846.51-1.22.342-.374.743-.561 1.205-.561.44 0 .83.17 1.171.511.341.341.512.764.512 1.27 0 .44-.16.83-.479 1.172-.319.34-.72.51-1.204.51z"/>
</svg>
