  <svg
    width="28"
    height="28"
    viewBox="0 0 68 57"
    className=""
    aria-hidden="true"
    xmlns="http://www.w3.org/2000/svg"
    xmlnsXlink="http://www.w3.org/1999/xlink"
  >
    <path
      fill="#007AC9"
      fillRule="nonzero"
      d="M15.72 56.04c.627 0 1.184-.105 1.672-.313l47.631-18.698c.905-.278 1.628-.827 2.167-1.645.54-.818.81-1.732.81-2.742a4.6 4.6 0 0 0-.313-1.723l-11.02-27.89a4.43 4.43 0 0 0-1.75-2.22A4.872 4.872 0 0 0 52.175 0c-.592 0-1.131.104-1.619.313L2.977 19.063c-.94.348-1.671.931-2.194 1.75A4.99 4.99 0 0 0 0 23.555c0 .591.104 1.166.313 1.723l11.02 27.785c.349.94.932 1.671 1.75 2.194a4.813 4.813 0 0 0 2.637.783zM9.61 34.366l-2.873-7.521L53.481 8.46l2.872 7.468L9.61 34.366zm4.7 8.983c-.557-.035-.94-.331-1.149-.888a1.163 1.163 0 0 1-.026-1.045c.157-.348.41-.557.757-.626l18.384-7.521c.279-.14.601-.13.967.026.365.157.618.409.757.757.14.348.14.697 0 1.045s-.383.557-.731.627l-18.436 7.52c-.07.07-.244.105-.523.105zm2.037 5.85c-.661 0-1.097-.28-1.306-.836a2.06 2.06 0 0 1 .079-1.071c.122-.366.357-.618.705-.757L29.3 41.103c.348-.07.705-.052 1.07.052a1.1 1.1 0 0 1 .757.68c.07.347.053.704-.052 1.07-.104.365-.348.618-.73.757l-13.476 5.432-.522.104z"
    />
  </svg>