<svg width="60" height="51" viewBox="0 0 60 51" class="" aria-hidden="true" xmlns="http://www.w3.org/2000/svg" xmlns:xlink="http://www.w3.org/1999/xlink"><path fill="#007AC9" d="M13.887 50.207c.618 0 1.188-.228 1.709-.684l11.62-11.328h29.395c.912 0 1.701-.35 2.368-1.05.668-.7 1.001-1.521 1.001-2.465V4.406c0-.944-.333-1.766-1-2.466-.668-.7-1.457-1.05-2.369-1.05H4.121c-.944 0-1.766.35-2.466 1.05-.7.7-1.05 1.522-1.05 2.466V34.68c0 .944.35 1.766 1.05 2.466.7.7 1.522 1.05 2.466 1.05h7.96v10.107c0 .586.17 1.05.512 1.391.342.342.773.513 1.294.513z"></path></svg>
