 <svg
    xmlns="http://www.w3.org/2000/svg"
    viewBox="0 0 19 19"
  >
    <g fill="#007AC9" transform="translate(.25 .5)">
      <path d="M8.25,2.25 C8.94035594,2.25 9.5,2.80964406 9.5,3.5 C9.5,4.14720869 9.00812534,4.6795339 8.37780524,4.74354639 L8.25,4.75 L2.5,4.75 L2.5,15.75 L13.5,15.75 L13.5,10.5 C13.5,9.85279131 13.9918747,9.3204661 14.6221948,9.25645361 L14.75,9.25 C15.3972087,9.25 15.9295339,9.74187466 15.9935464,10.3721948 L16,10.5 L16,16 C16,17.190864 15.0748384,18.1656449 13.9040488,18.2448092 L13.75,18.25 L2.25,18.25 C1.05913601,18.25 0.084355084,17.3248384 0.00519081254,16.1540488 L0,16 L0,4.5 C0,3.30913601 0.925161591,2.33435508 2.09595119,2.25519081 L2.25,2.25 L8.25,2.25 Z" />
      <g transform="translate(6.75)">
        <path d="M7.43933983,1.93933983 C8.02512627,1.35355339 8.97487373,1.35355339 9.56066017,1.93933983 C10.109835,2.48851461 10.1441584,3.35757702 9.66363044,3.94673776 L9.56066017,4.06066017 L2.56066017,11.0606602 C1.97487373,11.6464466 1.02512627,11.6464466 0.439339828,11.0606602 C-0.109834957,10.5114854 -0.144158381,9.64242298 0.336369556,9.05326224 L0.439339828,8.93933983 L7.43933983,1.93933983 Z" />
        <path d="M10.5,0 C11.0522847,0 11.5,0.44771525 11.5,1 L11.5,1 L11.5,7 C11.5,7.89090485 10.4228581,8.33707164 9.79289322,7.70710678 L9.79289322,7.70710678 L3.79289322,1.70710678 C3.16292836,1.07714192 3.60909515,0 4.5,0 L4.5,0 Z" />
      </g>
    </g>
  </svg>