   <svg version="1.0" xmlns="http://www.w3.org/2000/svg" preserveAspectRatio="xMidYMid meet" width="34" height="34" viewBox="306.5 161.28 584 582.22">
                <g transform="translate(0.000000,900.000000) scale(0.100000,-0.100000)" fill="#ffffff" stroke="none">
                  <path d="M3320 7376 c-102 -29 -176 -89 -222 -184 l-33 -67 0 -2655 0 -2655 33 -67 c37 -76 82 -120 162 -157 l55 -26 2675 0 2675 0 56 28 c66 32 132 99 162 165 l22 47 0 2670 0 2670 -28 57 c-33 67 -90 121 -166 157 l-56 26 -2645 2 c-2094 1 -2654 -1 -2690 -11z m5258 -2908 l-3 -2583 -2592 -3 -2593 -2 0 2585 0 2585 2595 0 2595 0 -2 -2582z"></path>
                  <path d="M5705 6421 c-167 -27 -279 -85 -400 -206 -71 -71 -100 -109 -137 -180 -146 -282 -154 -649 -18 -930 98 -204 259 -344 457 -396 113 -31 280 -31 388 0 275 77 473 305 540 621 75 353 -42 753 -274 937 -68 54 -196 118 -275 138 -73 18 -215 26 -281 16z m231 -356 c97 -47 181 -165 220 -307 41 -147 24 -382 -36 -514 -113 -250 -372 -309 -543 -124 -103 110 -141 229 -141 435 0 150 13 222 59 322 86 189 275 269 441 188z"></path>
                  <path d="M4411 6404 c-99 -22 -301 -83 -346 -105 -56 -27 -78 -62 -83 -129 -3 -45 0 -61 20 -89 51 -75 119 -90 256 -53 39 11 74 17 77 14 3 -3 5 -278 5 -612 l0 -607 23 -34 c67 -100 195 -114 278 -30 20 20 42 54 48 76 15 56 15 1394 0 1450 -21 74 -109 137 -189 134 -14 -1 -54 -7 -89 -15z"></path>
                  <path d="M6923 6009 c-69 -20 -122 -110 -109 -184 11 -57 38 -93 295 -384 31 -34 58 -67 59 -72 2 -5 -29 -48 -70 -95 -274 -322 -296 -351 -303 -397 -19 -126 109 -222 226 -170 54 24 91 65 239 260 63 84 120 152 125 152 6 0 71 -81 145 -180 145 -192 189 -233 266 -245 35 -5 53 -1 91 17 66 33 93 76 93 149 0 73 -6 82 -217 322 l-164 187 166 193 c92 106 173 206 182 222 23 44 21 116 -5 158 -40 65 -132 92 -203 61 -58 -26 -79 -49 -222 -235 -67 -87 -124 -158 -127 -158 -3 0 -61 75 -129 165 -136 182 -172 219 -228 234 -44 13 -66 13 -110 0z"></path>
                  <path d="M5945 4250 c-158 -22 -280 -85 -400 -205 -78 -77 -98 -105 -143 -195 -200 -401 -118 -925 185 -1175 132 -110 270 -158 453 -158 134 -1 232 22 342 80 75 39 188 138 242 211 195 267 229 715 76 1026 -125 257 -342 404 -615 420 -44 3 -107 1 -140 -4z m231 -355 c208 -102 304 -465 203 -772 -94 -286 -382 -371 -568 -168 -100 110 -136 226 -135 440 1 134 4 158 27 231 82 250 281 363 473 269z"></path>
                  <path d="M4312 4240 c-160 -22 -269 -76 -384 -189 -59 -59 -79 -86 -88 -119 -21 -80 13 -157 84 -191 83 -41 147 -22 242 70 72 69 133 99 213 106 77 7 135 -11 186 -58 51 -47 69 -102 63 -186 -9 -126 -84 -214 -393 -465 -99 -80 -220 -178 -270 -218 -49 -40 -107 -89 -129 -109 -90 -84 -102 -207 -28 -284 52 -54 80 -57 611 -57 452 0 489 2 527 19 60 27 89 73 89 141 -1 42 -6 64 -24 88 -46 65 -53 66 -404 72 l-318 5 157 120 c218 166 318 250 394 331 124 131 163 229 163 404 0 94 -4 127 -22 180 -58 166 -183 277 -366 324 -77 19 -222 27 -303 16z"></path>
                  <path d="M7168 3840 c-68 -20 -118 -88 -118 -158 0 -54 48 -124 203 -302 87 -99 157 -184 155 -189 -3 -8 -65 -83 -280 -334 -89 -105 -108 -153 -88 -219 24 -82 119 -133 201 -109 59 18 100 60 249 255 74 97 137 173 140 168 4 -4 70 -90 148 -192 160 -211 188 -234 283 -235 46 0 63 5 93 28 65 50 86 130 53 208 -8 19 -94 126 -191 237 l-177 202 154 178 c194 225 209 247 209 311 0 116 -116 191 -223 144 -58 -26 -79 -48 -222 -235 -67 -87 -123 -158 -126 -158 -4 1 -62 75 -131 166 -68 91 -139 179 -157 194 -49 43 -115 58 -175 40z"></path>
                </g>
              </svg>