<svg width="74" height="74" viewBox="0 0 74 74" class="" aria-hidden="true" xmlns="http://www.w3.org/2000/svg" xmlns:xlink="http://www.w3.org/1999/xlink"><path fill="#007AC9" fill-rule="nonzero" d="M32.318 51.88c1.465-1.269 3.093-1.903 4.883-1.903s3.386.602 4.785 1.806c4.623-1.107 8.415-3.548 11.377-7.324 2.963-3.776 4.444-8.09 4.444-12.94 0-4.329-1.205-8.268-3.614-11.816-.39.195-.96.293-1.709.293-5.306.195-10.115-.504-14.428-2.1-4.313-1.595-7.398-3.499-9.253-5.712-.749 1.888-1.97 3.58-3.662 5.078-1.693 1.497-3.614 2.376-5.762 2.636-2.311 3.484-3.467 7.357-3.467 11.622 0 4.915 1.554 9.269 4.663 13.061s7.023 6.226 11.743 7.3zm-18.7-13.769c-.62-2.116-.929-4.313-.929-6.591 0-3.484.733-6.853 2.198-10.108h-4.883c-1.074 0-2.01.383-2.808 1.148C6.4 23.325 6 24.277 6 25.416v8.691c0 1.075.399 2.01 1.196 2.808.798.798 1.734 1.196 2.808 1.196h3.613zM44.622 59.01c4.98-1.4 9.286-3.996 12.915-7.788 3.63-3.793 6.08-8.228 7.349-13.306.814-.293 1.489-.781 2.026-1.465.537-.683.806-1.465.806-2.344v-8.691c0-1.14-.383-2.091-1.148-2.856-.765-.765-1.717-1.148-2.856-1.148h-4.932C60.248 24.7 60.98 28.07 60.98 31.52c0 2.05-.325 4.248-.976 6.591h1.514c-1.14 4.2-3.223 7.845-6.25 10.938-3.028 3.092-6.608 5.306-10.743 6.64.13.814.196 1.449.196 1.905 0 .618-.033 1.09-.098 1.416zM28.51 30.787c-.749 0-1.351-.334-1.807-1-.456-.668-.683-1.572-.683-2.71 0-1.108.227-1.978.683-2.613.456-.635 1.058-.952 1.807-.952.65 0 1.212.317 1.684.952s.708 1.505.708 2.612c0 1.14-.236 2.043-.708 2.71-.472.667-1.033 1.001-1.684 1.001zm16.699 0c-.684 0-1.253-.334-1.709-1-.456-.668-.684-1.572-.684-2.71 0-1.108.236-1.978.708-2.613s1.034-.952 1.685-.952 1.213.317 1.685.952.708 1.505.708 2.612c0 1.14-.236 2.043-.708 2.71-.472.667-1.034 1.001-1.685 1.001zm-8.398 14.307c-2.344 0-4.346-.83-6.006-2.49-.196-.196-.293-.432-.293-.708 0-.277.097-.513.293-.709.195-.195.431-.292.708-.292.276 0 .512.097.708.292 1.27 1.27 2.8 1.905 4.59 1.905s3.32-.635 4.59-1.904c.195-.196.43-.293.707-.293.277 0 .513.097.708.292.196.196.293.432.293.709 0 .276-.097.512-.293.708-1.66 1.66-3.662 2.49-6.005 2.49zm.488 16.699c1.204 0 2.222-.415 3.052-1.245.83-.83 1.245-1.847 1.245-3.052 0-1.204-.415-2.238-1.245-3.1-.83-.863-1.848-1.294-3.052-1.294-1.205 0-2.238.43-3.1 1.294-.863.862-1.295 1.896-1.295 3.1 0 1.205.432 2.222 1.294 3.052.863.83 1.896 1.245 3.1 1.245z"></path></svg>