<svg width="64" height="51" viewBox="0 0 64 51" xmlns="http://www.w3.org/2000/svg">
  <path fill="#007AC9" fill-rule="nonzero" d="M0 50.299v-3.313c0-.207.069-.38.207-.517L4.969 35.65l.207-.31h52.896l.207.31 4.762 10.818c.138.138.207.31.207.517V50.3c0 .207-.103.31-.31.31H.31c-.207 0-.311-.103-.311-.31zm5.176-16.407V2.682c0-.552.198-1.044.595-1.475C6.168.775 6.642.56 7.194.56h48.86c.552 0 1.026.215 1.423.647.397.43.595.923.595 1.475v31.21H5.176zm3.726-3.934c0 .138.07.207.207.207h45.03c.138 0 .207-.069.207-.207V4.597c0-.207-.07-.31-.207-.31H9.109c-.138 0-.207.103-.207.31v25.361zm4.037-15.786c0-.207.07-.406.207-.595.139-.19.346-.285.622-.285.414 0 .724.259.931.776L16.2 18.83l1.605-4.762c.138-.483.414-.742.828-.776h.103c.483 0 .811.259.984.776l1.552 4.762 1.605-4.865c.138-.414.414-.639.828-.673.587.034.88.328.88.88 0 .207-.035.31-.104.31l-2.122 6.16c-.207.552-.569.828-1.087.828-.345 0-.586-.104-.724-.31-.138-.208-.207-.38-.207-.518l-1.605-4.71-1.604 4.71c-.138.552-.449.828-.932.828h-.103c-.483 0-.794-.276-.932-.828l-2.122-6.056c-.069-.07-.104-.207-.104-.414zm8.54 28.363c-.069.207-.043.388.078.544a.59.59 0 0 0 .492.233h19.15c.518-.035.708-.294.57-.777l-.466-1.553c-.207-.483-.587-.741-1.139-.776H22.98c-.207 0-.414.078-.62.233a1.127 1.127 0 0 0-.415.543l-.466 1.553zm4.245-28.363c0-.552.327-.846.983-.88.414 0 .69.259.828.776l1.501 4.762 1.605-4.762c.138-.483.448-.742.931-.776h.104c.414 0 .724.259.931.776l1.501 4.762 1.605-4.865c.138-.414.414-.639.828-.673.656.034.983.328.983.88l-.103.31-2.226 6.16c-.138.552-.466.828-.983.828h-.104c-.483 0-.793-.276-.931-.828l-1.605-4.71-1.5 4.71c-.208.552-.553.828-1.036.828-.414 0-.776-.276-1.087-.828l-2.122-6.056-.103-.414zm12.94.414v-.414c0-.207.068-.406.206-.595.138-.19.362-.285.673-.285.414 0 .69.259.828.776l1.605 4.762 1.449-4.762c.276-.483.604-.742.983-.776h.104c.483 0 .793.259.931.776l1.605 4.762 1.5-4.865c.277-.414.587-.639.932-.673.553.034.829.328.829.88 0 .207-.035.31-.104.31l-2.122 6.16c-.207.552-.552.828-1.035.828-.414 0-.76-.276-1.035-.828l-1.501-4.71-1.605 4.71c-.207.552-.517.828-.931.828h-.104c-.483 0-.81-.276-.983-.828l-2.226-6.056z"/>
</svg>

